<?xml version="1.0" encoding="UTF-8" standalone="no"?>
<!-- Created with Inkscape (http://www.inkscape.org/) -->

<svg
   width="146.55489mm"
   height="113.35971mm"
   viewBox="0 0 146.55489 113.35971"
   version="1.1"
   id="svg5"
   xmlns="http://www.w3.org/2000/svg">
  <defs
     id="defs2" />
  <g
     id="layer1"
     transform="translate(-30.529754,-38.911119)">
    <g
       id="g1234"
       transform="matrix(1.8141977,0,0,1.8141977,8.172385,-62.699972)">
      <path
         style="fill:#5674d2;stroke-width:0.0922284"
         d="M 21.430531,107.70286 V 96.912137 h 31.265436 31.265436 v 10.790723 10.79073 H 52.695967 21.430531 Z m 19.552426,-0.87617 v -3.91971 h -3.919708 -3.919708 v 3.91971 3.91971 h 3.919708 3.919708 z m 15.678832,0 v -3.91971 h -3.965822 -3.965822 v 3.91971 3.91971 h 3.965822 3.965822 z m 15.586604,-3.88836 c 0,-0.0172 -1.763869,-0.0313 -3.919708,-0.0313 h -3.919708 v 3.88242 3.88242 l 3.919708,-3.85108 c 2.155839,-2.11809 3.919708,-3.86518 3.919708,-3.88241 z M 21.430531,70.67315 v -6.871018 h 5.849198 5.849197 l 0.03482,2.697682 c 0.03438,2.662863 0.03816,2.707799 0.293447,3.481623 0.892277,2.704688 2.916441,4.659415 5.547826,5.357513 0.982456,0.260642 2.646553,0.282311 3.684159,0.04797 2.825263,-0.63807 5.087125,-2.839527 5.829657,-5.673967 0.211865,-0.808744 0.235783,-1.099305 0.279679,-3.397599 l 0.048,-2.513225 h 3.849447 3.849447 l 0.048,2.513225 c 0.0439,2.298294 0.06781,2.588855 0.279679,3.397599 0.608394,2.322399 2.122623,4.126394 4.32232,5.149444 1.044615,0.485837 2.008163,0.688933 3.259677,0.68707 2.011595,-0.003 3.646209,-0.617249 5.115735,-1.922397 1.154486,-1.025347 1.85679,-2.108446 2.36391,-3.645636 0.255284,-0.773824 0.259072,-0.81876 0.293447,-3.481623 l 0.03482,-2.697682 h 5.849197 5.849198 v 6.871018 6.871017 H 52.695967 21.430531 Z m 18.252522,0.670056 c -1.102096,-0.386517 -1.936172,-1.208905 -2.412188,-2.378387 -0.200975,-0.493757 -0.206284,-0.603329 -0.235362,-4.857448 -0.01927,-2.818883 0.0049,-4.539873 0.06867,-4.884696 0.237858,-1.286691 1.021046,-2.331039 2.173643,-2.898461 0.611816,-0.301196 0.686361,-0.315384 1.657087,-0.315384 0.951231,0 1.05624,0.01885 1.636535,0.293746 1.092407,0.517495 1.855186,1.420014 2.156461,2.551519 0.09872,0.370777 0.126703,1.448928 0.127557,4.915265 0.001,4.163598 -0.01026,4.477077 -0.181155,5.030362 -0.341173,1.104591 -1.033765,1.894033 -2.110409,2.405519 -0.826558,0.392679 -1.995007,0.448635 -2.880839,0.137965 z m 23.780206,0.105984 c -1.250275,-0.294668 -2.344411,-1.350485 -2.745626,-2.649468 -0.170893,-0.553285 -0.182182,-0.866764 -0.181155,-5.030362 8.3e-4,-3.466337 0.02883,-4.544488 0.127557,-4.915265 0.301275,-1.131505 1.064054,-2.034024 2.156461,-2.551519 0.580295,-0.274898 0.685304,-0.293746 1.636535,-0.293746 0.964186,0 1.04834,0.0157 1.636621,0.305309 1.166449,0.57424 1.956096,1.621006 2.194109,2.908536 0.06374,0.344823 0.08794,2.065813 0.06867,4.884696 -0.02904,4.247936 -0.03466,4.364349 -0.234403,4.854926 -0.662387,1.626816 -2.062739,2.602505 -3.699709,2.577758 -0.337055,-0.0051 -0.768631,-0.04599 -0.95906,-0.09086 z"
         id="path1238" />
      <path
         style="fill:#060236;stroke-width:0.0922284"
         d="M 15.712368,93.680704 C 14.602821,93.449056 13.666453,92.717878 13.13754,91.670108 12.062981,89.541417 12.050377,85.54324 13.11137,83.36705 c 0.36879,-0.756424 1.101663,-1.503167 1.769298,-1.802783 1.47054,-0.659939 3.740878,-0.364501 4.676281,0.608522 0.324309,0.337353 0.951301,1.336156 0.951301,1.515431 0,0.105536 -0.997737,0.74122 -1.047975,0.667694 -0.01238,-0.01813 -0.101483,-0.214337 -0.197996,-0.436024 -0.251701,-0.578151 -0.84571,-1.152089 -1.381227,-1.334558 -0.264785,-0.09022 -0.739488,-0.153058 -1.156287,-0.153058 -0.615862,0 -0.782811,0.03867 -1.294005,0.299742 -0.678768,0.346651 -1.167215,0.968537 -1.429663,1.820231 -0.203792,0.661345 -0.297631,4.147288 -0.13914,5.168789 0.285891,1.842608 1.336158,2.856365 2.959237,2.856365 0.623436,0 1.259519,-0.177378 1.660833,-0.463138 0.322707,-0.229788 0.875553,-1.035952 0.970872,-1.415733 0.03346,-0.133311 0.07908,-0.242383 0.10138,-0.242383 0.123605,0 1.046199,0.660078 1.046199,0.748512 0,0.219421 -0.582792,1.110927 -0.997539,1.525952 -0.247404,0.247568 -0.688166,0.549631 -1.031486,0.706897 -0.515287,0.236039 -0.729021,0.278487 -1.521769,0.302226 -0.507257,0.01519 -1.109047,-0.01137 -1.337313,-0.05903 z m 7.83882,0.0095 c -1.066389,-0.324382 -1.595434,-1.136884 -1.594336,-2.44857 0.0011,-1.2781 0.559162,-2.147679 1.600317,-2.493495 0.510257,-0.16948 1.775248,-0.317012 2.738411,-0.319372 l 0.668656,-0.0016 v -0.810514 c 0,-0.657338 -0.03922,-0.888143 -0.207514,-1.221282 -0.377337,-0.746928 -1.185021,-1.04558 -2.237054,-0.827179 -0.407065,0.08451 -0.605775,0.191385 -0.914757,0.492011 -0.217099,0.211228 -0.439815,0.467058 -0.494923,0.568509 -0.0954,0.175623 -0.118137,0.166997 -0.474798,-0.180117 -0.206032,-0.200516 -0.374603,-0.393165 -0.374603,-0.42811 0,-0.03494 0.188457,-0.273147 0.418795,-0.529337 0.789941,-0.878605 1.885306,-1.236656 3.172331,-1.036968 0.858652,0.133225 1.50063,0.461309 1.852124,0.946533 0.510736,0.705051 0.551597,1.015881 0.551597,4.196048 v 2.888456 h 0.461142 0.461143 v 0.553371 0.55337 l -0.530314,-5.53e-4 c -1.080138,-0.0011 -1.526518,-0.290855 -1.642849,-1.066603 -0.0337,-0.224657 -0.09839,-0.408498 -0.143767,-0.408498 -0.04538,0 -0.149199,0.16669 -0.230717,0.370421 -0.182869,0.457037 -0.824345,1.036282 -1.308132,1.181228 -0.39926,0.119621 -1.408995,0.132331 -1.770752,0.02229 z m 2.096791,-1.161765 c 0.515284,-0.215299 0.929509,-0.569023 1.132652,-0.967213 0.145718,-0.285633 0.183605,-0.543278 0.183605,-1.248586 v -0.888688 l -1.268141,0.0319 c -1.096428,0.02758 -1.326299,0.06055 -1.697651,0.243492 -0.587126,0.289237 -0.753428,0.652553 -0.708246,1.54729 0.03027,0.599367 0.06507,0.708604 0.305806,0.95988 0.149409,0.155949 0.397719,0.320205 0.551801,0.365014 0.446304,0.129789 1.133667,0.110047 1.500174,-0.04309 z m 11.493817,1.059409 c -1.079532,-0.34546 -1.873224,-1.327362 -2.214573,-2.739722 -0.184933,-0.765176 -0.20706,-2.609598 -0.04066,-3.389397 0.296785,-1.390837 1.06147,-2.412051 2.117009,-2.827202 0.732729,-0.288188 2.057091,-0.289905 2.784343,-0.0036 1.274245,0.501631 1.97685,1.786639 2.089901,3.822266 l 0.05506,0.991455 H 39.000603 36.06833 l 0.06304,0.755863 c 0.09777,1.172304 0.448733,1.819031 1.208568,2.227033 0.525628,0.282242 1.770612,0.277555 2.317166,-0.0087 0.400248,-0.209643 0.778394,-0.602924 1.009576,-1.049981 0.152302,-0.294519 0.218238,-0.282181 0.73,0.136603 0.273414,0.223738 0.274304,0.22755 0.124887,0.534872 -0.274853,0.565318 -0.802927,1.075825 -1.434431,1.386713 -0.544392,0.268003 -0.708217,0.303418 -1.494841,0.323139 -0.672093,0.01685 -1.019101,-0.02126 -1.450495,-0.159311 z m 3.353651,-5.861406 c -0.105772,-1.398538 -0.715032,-2.135965 -1.838445,-2.22519 -0.846455,-0.06723 -1.32851,0.09284 -1.826065,0.606338 -0.452407,0.466907 -0.60975,0.859414 -0.703299,1.754438 l -0.05906,0.5651 h 2.239932 2.239933 z m 14.198785,5.890007 c -0.951292,-0.31699 -1.780771,-1.414132 -2.057055,-2.720835 -0.08231,-0.389297 -0.141669,-1.133743 -0.141669,-1.776773 0,-2.366737 0.62584,-3.802902 1.937993,-4.447275 0.447444,-0.219732 0.634111,-0.256217 1.306004,-0.255268 0.632203,9.22e-4 0.858777,0.04089 1.17057,0.206663 0.425204,0.226065 0.802294,0.664227 0.959328,1.114695 0.05589,0.160343 0.159823,0.291533 0.23095,0.291533 0.107968,0 0.129319,-0.441599 0.129319,-2.674625 V 80.67994 h 0.645599 0.645599 v 6.45599 6.455989 h -0.645599 -0.645599 v -0.737827 c 0,-0.859987 -0.134768,-0.970107 -0.399469,-0.326411 -0.206966,0.503295 -0.758747,1.018662 -1.231057,1.149815 -0.504408,0.140066 -1.386174,0.111808 -1.904914,-0.06105 z m 2.522706,-1.224407 c 0.449884,-0.229513 0.798651,-0.653299 0.925577,-1.124663 0.06513,-0.241895 0.09108,-1.123191 0.0716,-2.432135 L 58.183558,86.78246 57.906873,86.389845 C 57.754696,86.173907 57.443425,85.8972 57.21516,85.774941 c -0.368269,-0.197245 -0.505714,-0.218234 -1.21995,-0.18629 -0.7317,0.03272 -0.836573,0.06147 -1.152855,0.315997 -0.854218,0.687431 -0.969965,1.10889 -0.931257,3.39092 0.02854,1.682944 0.04102,1.787407 0.265563,2.223288 0.408342,0.792682 1.234624,1.195336 2.24488,1.093949 0.248306,-0.02492 0.606235,-0.124264 0.795397,-0.220769 z m 30.642933,1.293405 C 86.560032,93.407956 85.831507,92.699592 85.403993,91.297532 85.230015,90.726958 85.215453,90.3814 85.18295,86.05224 l -0.0348,-4.634479 h 0.697823 0.697822 v 4.407588 c 0,3.647942 0.02424,4.502326 0.140633,4.957277 0.296905,1.160514 0.99148,1.71644 2.223885,1.77996 1.322961,0.06819 2.113025,-0.382015 2.544094,-1.449698 0.206342,-0.511077 0.209696,-0.5832 0.237503,-5.106763 l 0.0282,-4.588364 h 0.693825 0.693826 l -0.03828,4.54225 c -0.04227,5.015861 -0.05918,5.180303 -0.645577,6.280501 -0.321973,0.604083 -0.787223,0.997384 -1.527166,1.290997 -0.496829,0.197145 -2.384053,0.292867 -3.034871,0.153932 z M 31.768753,93.471423 c -0.172789,-0.06055 -0.401054,-0.227234 -0.507257,-0.37042 -0.190767,-0.257201 -0.193396,-0.333646 -0.218085,-6.340704 l -0.02499,-6.080365 h 0.647532 0.647532 v 5.902619 5.902619 h 0.553371 0.55337 v 0.553371 0.55337 l -0.668656,-0.0052 c -0.367761,-0.0029 -0.810028,-0.05474 -0.982817,-0.115286 z m 12.257742,-4.398702 v -4.519193 h 0.645599 0.645599 v 0.737827 c 0,0.861983 0.134832,0.969937 0.401512,0.321474 0.34891,-0.848416 1.260197,-1.31941 2.359883,-1.219694 0.667626,0.06054 1.186435,0.325103 1.611623,0.821839 0.617368,0.721255 0.642344,0.899926 0.677875,4.849202 l 0.03174,3.527737 h -0.646339 -0.646338 l -0.02735,-3.346009 -0.02735,-3.346009 -0.233065,-0.458414 c -0.176035,-0.346243 -0.333147,-0.509189 -0.642084,-0.665927 -0.748068,-0.379529 -1.845824,-0.21381 -2.371501,0.358006 -0.470659,0.511969 -0.488601,0.66551 -0.488601,4.181282 v 3.277071 H 44.672099 44.0265 Z m 17.248121,4.450021 c 7.38e-4,-0.03804 0.84395,-2.766853 1.873728,-6.064019 l 1.872325,-5.994847 0.876434,-0.0262 0.876434,-0.0262 1.867963,5.961802 c 1.027379,3.278991 1.890843,6.021426 1.918808,6.0943 0.04203,0.109532 -0.0735,0.127793 -0.666531,0.105356 l -0.717373,-0.02714 -0.310277,-1.060627 c -0.170652,-0.583344 -0.414602,-1.403025 -0.54211,-1.821511 l -0.231832,-0.760885 h -2.20358 -2.203581 l -0.141158,0.4842 c -0.07764,0.266309 -0.3194,1.09592 -0.537251,1.843578 l -0.396092,1.359377 -0.668656,9.87e-4 c -0.367761,5.54e-4 -0.668024,-0.03014 -0.667251,-0.06818 z m 5.883166,-6.824903 c -0.352663,-1.154008 -0.756179,-2.533976 -0.896703,-3.066595 -0.160289,-0.60753 -0.300569,-0.968399 -0.376447,-0.968399 -0.07634,0 -0.217526,0.370323 -0.382786,1.004008 -0.14401,0.552205 -0.531825,1.905039 -0.86181,3.0063 -0.329985,1.10126 -0.599973,2.029425 -0.599973,2.062587 0,0.03316 0.845758,0.06029 1.879462,0.06029 h 1.879462 z m 5.275068,0.803772 v -6.090303 l 0.933128,0.02628 0.933128,0.02628 1.012709,2.167368 c 0.556989,1.192052 1.230915,2.748407 1.497613,3.458565 0.266697,0.710159 0.522021,1.285459 0.567388,1.278444 0.04537,-0.007 0.292777,-0.567302 0.549802,-1.245084 0.257025,-0.677781 0.936665,-2.238772 1.510311,-3.468868 l 1.042993,-2.23654 h 0.910685 0.910684 v 6.087076 6.087076 h -0.653428 -0.653429 l 0.03089,-5.257051 c 0.01754,-2.985955 -0.004,-5.245395 -0.04996,-5.230071 -0.04446,0.01484 -0.357281,0.647771 -0.695145,1.406515 -0.337864,0.758744 -1.130103,2.431481 -1.760531,3.717195 l -1.146232,2.337662 -1.298907,-2.660461 c -0.7144,-1.463254 -1.501666,-3.127367 -1.749482,-3.698031 -0.247815,-0.570663 -0.494798,-1.037586 -0.548852,-1.037606 -0.06872,-2.7e-5 -0.08986,1.567063 -0.07028,5.210906 l 0.02799,5.210942 H 73.083384 72.43285 Z"
         id="path1236" />
    </g>
  </g>
</svg>
